<svg xmlns="http://www.w3.org/2000/svg" width="161.319" height="56" viewBox="0 0 161.319 56">
  <g id="vv" transform="translate(-3.162)">
    <g id="Group-19-Copy" transform="translate(3)">
      <text id="FX-Copy" transform="translate(81.243 44)" fill="#242424" font-size="40" font-family="Arial-Black, Arial" font-weight="800" letter-spacing="-0.16em"><tspan x="0" y="0">FX</tspan></text>
      <path id="M-Copy" d="M129.275,15.367h11.641l4.492,17.422,4.473-17.422h11.6V44h-7.226V22.164L148.65,44h-6.543l-5.586-21.836V44h-7.246Z" fill="#242424" fill-rule="evenodd"/>
      <path id="Fill-4" d="M121.581,15,101,44h11.764L133,15.025Z" fill="#38ec9d" fill-rule="evenodd"/>
      <path id="Line-3-Copy" d="M75,16V43" fill="none" stroke="#1b1b1b" stroke-linecap="square" stroke-width="1.5" fill-rule="evenodd"/>
      <path id="launch" d="M.162,36V25.351H2.33v8.84H7.721V36Zm19.317,0H17.121l-.937-2.439H11.891L11,36H8.7l4.182-10.737h2.3Zm-3.992-4.248-1.479-3.984-1.45,3.984Zm5.657-6.489h2.168v5.815a12.064,12.064,0,0,0,.081,1.795,1.739,1.739,0,0,0,.663,1.058,2.309,2.309,0,0,0,1.432.4,2.185,2.185,0,0,0,1.392-.377,1.49,1.49,0,0,0,.564-.926,12.078,12.078,0,0,0,.1-1.824v-5.94h2.168V30.9a14.49,14.49,0,0,1-.176,2.732,3.023,3.023,0,0,1-.648,1.348,3.275,3.275,0,0,1-1.263.875,5.5,5.5,0,0,1-2.065.326,5.947,5.947,0,0,1-2.333-.355,3.335,3.335,0,0,1-1.256-.923,2.957,2.957,0,0,1-.608-1.19,13.04,13.04,0,0,1-.212-2.725ZM32.543,36V25.263h2.109l4.4,7.17v-7.17h2.014V36H38.886l-4.329-7v7Zm18.211-3.948,2.1.667a4.714,4.714,0,0,1-1.608,2.611,5.059,5.059,0,0,1-6.368-.608,5.591,5.591,0,0,1-1.377-4,5.869,5.869,0,0,1,1.384-4.164,4.747,4.747,0,0,1,3.64-1.483,4.466,4.466,0,0,1,3.2,1.165,4.235,4.235,0,0,1,1.1,1.978l-2.146.513a2.218,2.218,0,0,0-2.263-1.8,2.443,2.443,0,0,0-1.937.857,4.2,4.2,0,0,0-.743,2.776,4.5,4.5,0,0,0,.732,2.9,2.378,2.378,0,0,0,1.9.864,2.172,2.172,0,0,0,1.487-.549,3.191,3.191,0,0,0,.9-1.727ZM55.254,36V25.263h2.168v4.226H61.67V25.263h2.168V36H61.67V31.305H57.422V36Z" fill="#242424" fill-rule="evenodd"/>
    </g>
  </g>
</svg>
